<svg xmlns="http://www.w3.org/2000/svg" viewBox="0 0 720 300" width="720" height="300" font-family="Verdana, 'DejaVu Sans', sans-serif" role="img" aria-labelledby="t d">
<title id="t">The camera model of the screen of consciousness, and its regress</title>
<desc id="d">Signals from the four corners of a frame of reference pass through a camera's aperture onto its screen. Reading that screen needs a second camera, whose screen needs a third, and so on without end.</desc>
<path d="M32 90 L100 90 L100 160 L32 160 Z" fill="none" stroke="#6b7280" stroke-width="1.4" stroke-linejoin="round" stroke-linecap="round" stroke-dasharray="4 3"/>
<text x="66" y="76" font-size="12" text-anchor="middle" fill="#6b7280">frame of reference</text>
<line x1="170" y1="62" x2="240" y2="62" stroke="#1e2226" stroke-width="1.4" stroke-linecap="round"/>
<line x1="170" y1="188" x2="240" y2="188" stroke="#1e2226" stroke-width="1.4" stroke-linecap="round"/>
<line x1="170" y1="62" x2="170" y2="119" stroke="#1e2226" stroke-width="2.4" stroke-linecap="butt"/>
<line x1="170" y1="131" x2="170" y2="188" stroke="#1e2226" stroke-width="2.4" stroke-linecap="butt"/>
<line x1="240" y1="68" x2="240" y2="182" stroke="#1e2226" stroke-width="4" stroke-linecap="butt"/>
<line x1="32" y1="90" x2="238" y2="142.75" stroke="#7c5cbf" stroke-width="1.2" stroke-linecap="round" stroke-opacity="0.9"/>
<circle cx="240" cy="142.75" r="3.2" fill="#7c5cbf" stroke="#ffffff" stroke-width="0.8"/>
<line x1="100" y1="90" x2="238" y2="160" stroke="#d08a2a" stroke-width="1.2" stroke-linecap="round" stroke-opacity="0.9"/>
<circle cx="240" cy="160" r="3.2" fill="#d08a2a" stroke="#ffffff" stroke-width="0.8"/>
<line x1="32" y1="160" x2="238" y2="107.25" stroke="#2f8f83" stroke-width="1.2" stroke-linecap="round" stroke-opacity="0.9"/>
<circle cx="240" cy="107.25" r="3.2" fill="#2f8f83" stroke="#ffffff" stroke-width="0.8"/>
<line x1="100" y1="160" x2="238" y2="90" stroke="#c0496b" stroke-width="1.2" stroke-linecap="round" stroke-opacity="0.9"/>
<circle cx="240" cy="90" r="3.2" fill="#c0496b" stroke="#ffffff" stroke-width="0.8"/>
<text x="205" y="50" font-size="12" text-anchor="middle" fill="#1e2226" font-weight="bold">camera 1</text>
<line x1="310" y1="62" x2="380" y2="62" stroke="#1e2226" stroke-width="1.4" stroke-linecap="round"/>
<line x1="310" y1="188" x2="380" y2="188" stroke="#1e2226" stroke-width="1.4" stroke-linecap="round"/>
<line x1="310" y1="62" x2="310" y2="119" stroke="#1e2226" stroke-width="2.4" stroke-linecap="butt"/>
<line x1="310" y1="131" x2="310" y2="188" stroke="#1e2226" stroke-width="2.4" stroke-linecap="butt"/>
<line x1="380" y1="68" x2="380" y2="182" stroke="#1e2226" stroke-width="4" stroke-linecap="butt"/>
<line x1="240" y1="142.75" x2="378" y2="107.25" stroke="#7c5cbf" stroke-width="1.2" stroke-linecap="round" stroke-opacity="0.9"/>
<circle cx="380" cy="107.25" r="3.2" fill="#7c5cbf" stroke="#ffffff" stroke-width="0.8"/>
<line x1="240" y1="160" x2="378" y2="90" stroke="#d08a2a" stroke-width="1.2" stroke-linecap="round" stroke-opacity="0.9"/>
<circle cx="380" cy="90" r="3.2" fill="#d08a2a" stroke="#ffffff" stroke-width="0.8"/>
<line x1="240" y1="107.25" x2="378" y2="142.75" stroke="#2f8f83" stroke-width="1.2" stroke-linecap="round" stroke-opacity="0.9"/>
<circle cx="380" cy="142.75" r="3.2" fill="#2f8f83" stroke="#ffffff" stroke-width="0.8"/>
<line x1="240" y1="90" x2="378" y2="160" stroke="#c0496b" stroke-width="1.2" stroke-linecap="round" stroke-opacity="0.9"/>
<circle cx="380" cy="160" r="3.2" fill="#c0496b" stroke="#ffffff" stroke-width="0.8"/>
<text x="345" y="50" font-size="12" text-anchor="middle" fill="#1e2226" font-weight="bold">camera 2</text>
<line x1="450" y1="62" x2="520" y2="62" stroke="#1e2226" stroke-width="1.4" stroke-linecap="round"/>
<line x1="450" y1="188" x2="520" y2="188" stroke="#1e2226" stroke-width="1.4" stroke-linecap="round"/>
<line x1="450" y1="62" x2="450" y2="119" stroke="#1e2226" stroke-width="2.4" stroke-linecap="butt"/>
<line x1="450" y1="131" x2="450" y2="188" stroke="#1e2226" stroke-width="2.4" stroke-linecap="butt"/>
<line x1="520" y1="68" x2="520" y2="182" stroke="#1e2226" stroke-width="4" stroke-linecap="butt"/>
<line x1="380" y1="107.25" x2="518" y2="142.75" stroke="#7c5cbf" stroke-width="1.2" stroke-linecap="round" stroke-opacity="0.9"/>
<circle cx="520" cy="142.75" r="3.2" fill="#7c5cbf" stroke="#ffffff" stroke-width="0.8"/>
<line x1="380" y1="90" x2="518" y2="160" stroke="#d08a2a" stroke-width="1.2" stroke-linecap="round" stroke-opacity="0.9"/>
<circle cx="520" cy="160" r="3.2" fill="#d08a2a" stroke="#ffffff" stroke-width="0.8"/>
<line x1="380" y1="142.75" x2="518" y2="107.25" stroke="#2f8f83" stroke-width="1.2" stroke-linecap="round" stroke-opacity="0.9"/>
<circle cx="520" cy="107.25" r="3.2" fill="#2f8f83" stroke="#ffffff" stroke-width="0.8"/>
<line x1="380" y1="160" x2="518" y2="90" stroke="#c0496b" stroke-width="1.2" stroke-linecap="round" stroke-opacity="0.9"/>
<circle cx="520" cy="90" r="3.2" fill="#c0496b" stroke="#ffffff" stroke-width="0.8"/>
<text x="485" y="50" font-size="12" text-anchor="middle" fill="#1e2226" font-weight="bold">camera 3</text>
<circle cx="32" cy="90" r="4" fill="#7c5cbf" stroke="#ffffff" stroke-width="1"/>
<circle cx="100" cy="90" r="4" fill="#d08a2a" stroke="#ffffff" stroke-width="1"/>
<circle cx="32" cy="160" r="4" fill="#2f8f83" stroke="#ffffff" stroke-width="1"/>
<circle cx="100" cy="160" r="4" fill="#c0496b" stroke="#ffffff" stroke-width="1"/>
<text x="170" y="207" font-size="12" text-anchor="middle" fill="#6b7280">aperture</text>
<text x="240" y="207" font-size="12" text-anchor="middle" fill="#6b7280">screen</text>
<circle cx="548" cy="125" r="2.4" fill="#1e2226" stroke="none" stroke-width="0"/>
<circle cx="560" cy="125" r="2.4" fill="#1e2226" stroke="none" stroke-width="0"/>
<circle cx="572" cy="125" r="2.4" fill="#1e2226" stroke="none" stroke-width="0"/>
<text x="588" y="120" font-size="13" text-anchor="start" fill="#1e2226" font-weight="bold">who reads</text>
<text x="588" y="138" font-size="13" text-anchor="start" fill="#1e2226" font-weight="bold">this screen?</text>
<text x="20" y="244" font-size="12" text-anchor="start" fill="#1e2226" font-weight="bold">If the aperture binds the information:</text>
<text x="20" y="261" font-size="12" text-anchor="start" fill="#6b7280">a point holds none, and a wider opening</text>
<text x="20" y="278" font-size="12" text-anchor="start" fill="#6b7280">has no natural boundary</text>
<text x="380" y="244" font-size="12" text-anchor="start" fill="#1e2226" font-weight="bold">If the screen binds it:</text>
<text x="380" y="261" font-size="12" text-anchor="start" fill="#6b7280">its spots still need combining, by another</text>
<text x="380" y="278" font-size="12" text-anchor="start" fill="#6b7280">viewer with an aperture and a screen</text>
</svg>