<svg viewBox="0 0 900 500" xmlns="http://www.w3.org/2000/svg">
<defs>
<clipPath id="clip-honey"><rect x="374" y="326" width="172" height="96" rx="9"/></clipPath>
<clipPath id="clip-bfly"><path d="M 788.0 228.8 C 816.36 203.76 840.12 223.56 830.88 242.04 C 825.6 251.28 804.48 248.64 788.0 244.7 Z"/><path d="M 788.0 247.3 C 812.4 249.96 826.92 265.8 817.68 281.64 C 811.08 292.2 795.24 284.28 788.0 264.5 Z"/><path d="M 784.0 228.8 C 755.64 203.76 731.88 223.56 741.12 242.04 C 746.4 251.28 767.52 248.64 784.0 244.7 Z"/><path d="M 784.0 247.3 C 759.6 249.96 745.08 265.8 754.32 281.64 C 760.92 292.2 776.76 284.28 784.0 264.5 Z"/></clipPath>
</defs>
<rect x="0" y="0" width="900" height="500" rx="18" ry="18" fill="#FAF9F6" stroke="#E5E2DA" stroke-width="1.5"/>
<text x="450.0" y="32.0" font-family="DejaVu Sans, sans-serif" font-size="17" font-weight="700" fill="#2A2A2A" text-anchor="middle" dominant-baseline="central">Two energy-lowering routes converge on the hybrid hallucination</text>
<rect x="40.0" y="168.0" width="168.0" height="150.0" rx="12" ry="12" fill="#FBEDE9" fill-opacity="1.0" stroke="#2A2A2A" stroke-width="2"/>
<text x="124.0" y="192.0" font-family="DejaVu Sans, sans-serif" font-size="14" font-weight="700" fill="#2A2A2A" text-anchor="middle" dominant-baseline="central">excited</text>
<text x="124.0" y="210.0" font-family="DejaVu Sans, sans-serif" font-size="14" font-weight="700" fill="#2A2A2A" text-anchor="middle" dominant-baseline="central">world-sheet</text>
<path d="M 56.0 264.0 L 58.3 269.9 L 60.5 276.6 L 62.8 281.5 L 65.1 282.5 L 67.3 278.5 L 69.6 270.5 L 71.9 260.7 L 74.1 251.8 L 76.4 246.5 L 78.7 245.9 L 80.9 249.7 L 83.2 256.0 L 85.5 262.3 L 87.7 266.4 L 90.0 267.1 L 92.3 264.9 L 94.5 261.5 L 96.8 259.2 L 99.1 259.9 L 101.3 264.0 L 103.6 270.7 L 105.9 277.8 L 108.1 282.7 L 110.4 283.2 L 112.7 278.9 L 114.9 270.6 L 117.2 260.7 L 119.5 252.2 L 121.7 247.3 L 124.0 247.2 L 126.3 251.1 L 128.5 257.1 L 130.8 262.6 L 133.1 265.7 L 135.3 265.5 L 137.6 262.8 L 139.9 259.4 L 142.1 257.5 L 144.4 259.0 L 146.7 264.0 L 148.9 271.4 L 151.2 278.8 L 153.5 283.6 L 155.7 283.8 L 158.0 279.0 L 160.3 270.5 L 162.5 260.8 L 164.8 252.7 L 167.1 248.3 L 169.3 248.6 L 171.6 252.6 L 173.9 258.2 L 176.1 262.9 L 178.4 265.0 L 180.7 264.0 L 182.9 260.7 L 185.2 257.2 L 187.5 255.9 L 189.7 258.1 L 192.0 264.0" fill="none" stroke="#B4534B" stroke-width="2.2" stroke-opacity="1.0" fill-opacity="1.0" stroke-linejoin="round" stroke-linecap="round"/>
<text x="124.0" y="336.0" font-family="DejaVu Sans, sans-serif" font-size="12.5" font-weight="400" fill="#8A8A8A" text-anchor="middle" dominant-baseline="central">high energy · chaotic</text>
<rect x="360.0" y="64.0" width="200.0" height="150.0" rx="12" ry="12" fill="#F3E2D0" fill-opacity="1.0" stroke="#2A2A2A" stroke-width="2"/>
<text x="460.0" y="86.0" font-family="DejaVu Sans, sans-serif" font-size="13.5" font-weight="700" fill="#2A2A2A" text-anchor="middle" dominant-baseline="central">semantic recognition</text>
<path d="M 462.0 127.4 C 489.44 103.03999999999999 512.48 122.24 503.52 140.16 C 498.4 149.12 477.92 146.56 462.0 142.7 Z" fill="#EBC9A3" stroke="#C77B3B" stroke-width="2.2" stroke-opacity="1.0" fill-opacity="1.0" stroke-linejoin="round" stroke-linecap="round"/>
<path d="M 462.0 145.3 C 485.6 147.84 499.68 163.2 490.72 178.56 C 484.32 188.8 468.96 181.12 462.0 161.9 Z" fill="#EBC9A3" stroke="#C77B3B" stroke-width="2.2" stroke-opacity="1.0" fill-opacity="1.0" stroke-linejoin="round" stroke-linecap="round"/>
<path d="M 458.0 127.4 C 430.56 103.03999999999999 407.52 122.24 416.48 140.16 C 421.6 149.12 442.08 146.56 458.0 142.7 Z" fill="#EBC9A3" stroke="#C77B3B" stroke-width="2.2" stroke-opacity="1.0" fill-opacity="1.0" stroke-linejoin="round" stroke-linecap="round"/>
<path d="M 458.0 145.3 C 434.4 147.84 420.32 163.2 429.28 178.56 C 435.68 188.8 451.04 181.12 458.0 161.9 Z" fill="#EBC9A3" stroke="#C77B3B" stroke-width="2.2" stroke-opacity="1.0" fill-opacity="1.0" stroke-linejoin="round" stroke-linecap="round"/>
<ellipse cx="460.0" cy="144" rx="2.2" ry="25.6" fill="#2A2A2A"/>
<circle cx="460.0" cy="122.2" r="3.2" fill="#2A2A2A"/>
<path d="M 462.0 119.7 C 464.5 112.0 467.7 108.2 469.6 106.9" fill="none" stroke="#2A2A2A" stroke-width="1.6" stroke-opacity="1.0" fill-opacity="1.0" stroke-linejoin="round" stroke-linecap="round"/>
<circle cx="469.6" cy="106.9" r="2.6" fill="#2A2A2A"/>
<path d="M 458.0 119.7 C 455.5 112.0 452.3 108.2 450.4 106.9" fill="none" stroke="#2A2A2A" stroke-width="1.6" stroke-opacity="1.0" fill-opacity="1.0" stroke-linejoin="round" stroke-linecap="round"/>
<circle cx="450.4" cy="106.9" r="2.6" fill="#2A2A2A"/>
<text x="460.0" y="198.0" font-family="DejaVu Sans, sans-serif" font-size="12" font-weight="400" fill="#8A8A8A" text-anchor="middle" dominant-baseline="central">Bayesian energy sink</text>
<rect x="360.0" y="286.0" width="200.0" height="150.0" rx="12" ry="12" fill="#DCEBE2" fill-opacity="1.0" stroke="#2A2A2A" stroke-width="2"/>
<text x="460.0" y="308.0" font-family="DejaVu Sans, sans-serif" font-size="13.5" font-weight="700" fill="#2A2A2A" text-anchor="middle" dominant-baseline="central">symmetry</text>
<g clip-path="url(#clip-honey)"><polygon points="374.0,313.0 367.5,324.3 354.5,324.3 348.0,313.0 354.5,301.7 367.5,301.7" fill="none" stroke="#4C8C6B" stroke-width="1.7"/><polygon points="374.0,335.5 367.5,346.8 354.5,346.8 348.0,335.5 354.5,324.3 367.5,324.3" fill="none" stroke="#4C8C6B" stroke-width="1.7"/><polygon points="374.0,358.0 367.5,369.3 354.5,369.3 348.0,358.0 354.5,346.8 367.5,346.8" fill="none" stroke="#4C8C6B" stroke-width="1.7"/><polygon points="374.0,380.5 367.5,391.8 354.5,391.8 348.0,380.5 354.5,369.3 367.5,369.3" fill="none" stroke="#4C8C6B" stroke-width="1.7"/><polygon points="374.0,403.1 367.5,414.3 354.5,414.3 348.0,403.1 354.5,391.8 367.5,391.8" fill="none" stroke="#4C8C6B" stroke-width="1.7"/><polygon points="374.0,425.6 367.5,436.8 354.5,436.8 348.0,425.6 354.5,414.3 367.5,414.3" fill="none" stroke="#4C8C6B" stroke-width="1.7"/><polygon points="393.5,324.3 387.0,335.5 374.0,335.5 367.5,324.3 374.0,313.0 387.0,313.0" fill="none" stroke="#4C8C6B" stroke-width="1.7"/><polygon points="393.5,346.8 387.0,358.0 374.0,358.0 367.5,346.8 374.0,335.5 387.0,335.5" fill="none" stroke="#4C8C6B" stroke-width="1.7"/><polygon points="393.5,369.3 387.0,380.5 374.0,380.5 367.5,369.3 374.0,358.0 387.0,358.0" fill="none" stroke="#4C8C6B" stroke-width="1.7"/><polygon points="393.5,391.8 387.0,403.1 374.0,403.1 367.5,391.8 374.0,380.5 387.0,380.5" fill="none" stroke="#4C8C6B" stroke-width="1.7"/><polygon points="393.5,414.3 387.0,425.6 374.0,425.6 367.5,414.3 374.0,403.1 387.0,403.1" fill="none" stroke="#4C8C6B" stroke-width="1.7"/><polygon points="413.0,313.0 406.5,324.3 393.5,324.3 387.0,313.0 393.5,301.7 406.5,301.7" fill="none" stroke="#4C8C6B" stroke-width="1.7"/><polygon points="413.0,335.5 406.5,346.8 393.5,346.8 387.0,335.5 393.5,324.3 406.5,324.3" fill="none" stroke="#4C8C6B" stroke-width="1.7"/><polygon points="413.0,358.0 406.5,369.3 393.5,369.3 387.0,358.0 393.5,346.8 406.5,346.8" fill="none" stroke="#4C8C6B" stroke-width="1.7"/><polygon points="413.0,380.5 406.5,391.8 393.5,391.8 387.0,380.5 393.5,369.3 406.5,369.3" fill="none" stroke="#4C8C6B" stroke-width="1.7"/><polygon points="413.0,403.1 406.5,414.3 393.5,414.3 387.0,403.1 393.5,391.8 406.5,391.8" fill="none" stroke="#4C8C6B" stroke-width="1.7"/><polygon points="413.0,425.6 406.5,436.8 393.5,436.8 387.0,425.6 393.5,414.3 406.5,414.3" fill="none" stroke="#4C8C6B" stroke-width="1.7"/><polygon points="432.5,324.3 426.0,335.5 413.0,335.5 406.5,324.3 413.0,313.0 426.0,313.0" fill="none" stroke="#4C8C6B" stroke-width="1.7"/><polygon points="432.5,346.8 426.0,358.0 413.0,358.0 406.5,346.8 413.0,335.5 426.0,335.5" fill="none" stroke="#4C8C6B" stroke-width="1.7"/><polygon points="432.5,369.3 426.0,380.5 413.0,380.5 406.5,369.3 413.0,358.0 426.0,358.0" fill="none" stroke="#4C8C6B" stroke-width="1.7"/><polygon points="432.5,391.8 426.0,403.1 413.0,403.1 406.5,391.8 413.0,380.5 426.0,380.5" fill="none" stroke="#4C8C6B" stroke-width="1.7"/><polygon points="432.5,414.3 426.0,425.6 413.0,425.6 406.5,414.3 413.0,403.1 426.0,403.1" fill="none" stroke="#4C8C6B" stroke-width="1.7"/><polygon points="452.0,313.0 445.5,324.3 432.5,324.3 426.0,313.0 432.5,301.7 445.5,301.7" fill="none" stroke="#4C8C6B" stroke-width="1.7"/><polygon points="452.0,335.5 445.5,346.8 432.5,346.8 426.0,335.5 432.5,324.3 445.5,324.3" fill="none" stroke="#4C8C6B" stroke-width="1.7"/><polygon points="452.0,358.0 445.5,369.3 432.5,369.3 426.0,358.0 432.5,346.8 445.5,346.8" fill="none" stroke="#4C8C6B" stroke-width="1.7"/><polygon points="452.0,380.5 445.5,391.8 432.5,391.8 426.0,380.5 432.5,369.3 445.5,369.3" fill="none" stroke="#4C8C6B" stroke-width="1.7"/><polygon points="452.0,403.1 445.5,414.3 432.5,414.3 426.0,403.1 432.5,391.8 445.5,391.8" fill="none" stroke="#4C8C6B" stroke-width="1.7"/><polygon points="452.0,425.6 445.5,436.8 432.5,436.8 426.0,425.6 432.5,414.3 445.5,414.3" fill="none" stroke="#4C8C6B" stroke-width="1.7"/><polygon points="471.5,324.3 465.0,335.5 452.0,335.5 445.5,324.3 452.0,313.0 465.0,313.0" fill="none" stroke="#4C8C6B" stroke-width="1.7"/><polygon points="471.5,346.8 465.0,358.0 452.0,358.0 445.5,346.8 452.0,335.5 465.0,335.5" fill="none" stroke="#4C8C6B" stroke-width="1.7"/><polygon points="471.5,369.3 465.0,380.5 452.0,380.5 445.5,369.3 452.0,358.0 465.0,358.0" fill="none" stroke="#4C8C6B" stroke-width="1.7"/><polygon points="471.5,391.8 465.0,403.1 452.0,403.1 445.5,391.8 452.0,380.5 465.0,380.5" fill="none" stroke="#4C8C6B" stroke-width="1.7"/><polygon points="471.5,414.3 465.0,425.6 452.0,425.6 445.5,414.3 452.0,403.1 465.0,403.1" fill="none" stroke="#4C8C6B" stroke-width="1.7"/><polygon points="491.0,313.0 484.5,324.3 471.5,324.3 465.0,313.0 471.5,301.7 484.5,301.7" fill="none" stroke="#4C8C6B" stroke-width="1.7"/><polygon points="491.0,335.5 484.5,346.8 471.5,346.8 465.0,335.5 471.5,324.3 484.5,324.3" fill="none" stroke="#4C8C6B" stroke-width="1.7"/><polygon points="491.0,358.0 484.5,369.3 471.5,369.3 465.0,358.0 471.5,346.8 484.5,346.8" fill="none" stroke="#4C8C6B" stroke-width="1.7"/><polygon points="491.0,380.5 484.5,391.8 471.5,391.8 465.0,380.5 471.5,369.3 484.5,369.3" fill="none" stroke="#4C8C6B" stroke-width="1.7"/><polygon points="491.0,403.1 484.5,414.3 471.5,414.3 465.0,403.1 471.5,391.8 484.5,391.8" fill="none" stroke="#4C8C6B" stroke-width="1.7"/><polygon points="491.0,425.6 484.5,436.8 471.5,436.8 465.0,425.6 471.5,414.3 484.5,414.3" fill="none" stroke="#4C8C6B" stroke-width="1.7"/><polygon points="510.5,324.3 504.0,335.5 491.0,335.5 484.5,324.3 491.0,313.0 504.0,313.0" fill="none" stroke="#4C8C6B" stroke-width="1.7"/><polygon points="510.5,346.8 504.0,358.0 491.0,358.0 484.5,346.8 491.0,335.5 504.0,335.5" fill="none" stroke="#4C8C6B" stroke-width="1.7"/><polygon points="510.5,369.3 504.0,380.5 491.0,380.5 484.5,369.3 491.0,358.0 504.0,358.0" fill="none" stroke="#4C8C6B" stroke-width="1.7"/><polygon points="510.5,391.8 504.0,403.1 491.0,403.1 484.5,391.8 491.0,380.5 504.0,380.5" fill="none" stroke="#4C8C6B" stroke-width="1.7"/><polygon points="510.5,414.3 504.0,425.6 491.0,425.6 484.5,414.3 491.0,403.1 504.0,403.1" fill="none" stroke="#4C8C6B" stroke-width="1.7"/><polygon points="530.0,313.0 523.5,324.3 510.5,324.3 504.0,313.0 510.5,301.7 523.5,301.7" fill="none" stroke="#4C8C6B" stroke-width="1.7"/><polygon points="530.0,335.5 523.5,346.8 510.5,346.8 504.0,335.5 510.5,324.3 523.5,324.3" fill="none" stroke="#4C8C6B" stroke-width="1.7"/><polygon points="530.0,358.0 523.5,369.3 510.5,369.3 504.0,358.0 510.5,346.8 523.5,346.8" fill="none" stroke="#4C8C6B" stroke-width="1.7"/><polygon points="530.0,380.5 523.5,391.8 510.5,391.8 504.0,380.5 510.5,369.3 523.5,369.3" fill="none" stroke="#4C8C6B" stroke-width="1.7"/><polygon points="530.0,403.1 523.5,414.3 510.5,414.3 504.0,403.1 510.5,391.8 523.5,391.8" fill="none" stroke="#4C8C6B" stroke-width="1.7"/><polygon points="530.0,425.6 523.5,436.8 510.5,436.8 504.0,425.6 510.5,414.3 523.5,414.3" fill="none" stroke="#4C8C6B" stroke-width="1.7"/><polygon points="549.5,324.3 543.0,335.5 530.0,335.5 523.5,324.3 530.0,313.0 543.0,313.0" fill="none" stroke="#4C8C6B" stroke-width="1.7"/><polygon points="549.5,346.8 543.0,358.0 530.0,358.0 523.5,346.8 530.0,335.5 543.0,335.5" fill="none" stroke="#4C8C6B" stroke-width="1.7"/><polygon points="549.5,369.3 543.0,380.5 530.0,380.5 523.5,369.3 530.0,358.0 543.0,358.0" fill="none" stroke="#4C8C6B" stroke-width="1.7"/><polygon points="549.5,391.8 543.0,403.1 530.0,403.1 523.5,391.8 530.0,380.5 543.0,380.5" fill="none" stroke="#4C8C6B" stroke-width="1.7"/><polygon points="549.5,414.3 543.0,425.6 530.0,425.6 523.5,414.3 530.0,403.1 543.0,403.1" fill="none" stroke="#4C8C6B" stroke-width="1.7"/><polygon points="569.0,313.0 562.5,324.3 549.5,324.3 543.0,313.0 549.5,301.7 562.5,301.7" fill="none" stroke="#4C8C6B" stroke-width="1.7"/><polygon points="569.0,335.5 562.5,346.8 549.5,346.8 543.0,335.5 549.5,324.3 562.5,324.3" fill="none" stroke="#4C8C6B" stroke-width="1.7"/><polygon points="569.0,358.0 562.5,369.3 549.5,369.3 543.0,358.0 549.5,346.8 562.5,346.8" fill="none" stroke="#4C8C6B" stroke-width="1.7"/><polygon points="569.0,380.5 562.5,391.8 549.5,391.8 543.0,380.5 549.5,369.3 562.5,369.3" fill="none" stroke="#4C8C6B" stroke-width="1.7"/><polygon points="569.0,403.1 562.5,414.3 549.5,414.3 543.0,403.1 549.5,391.8 562.5,391.8" fill="none" stroke="#4C8C6B" stroke-width="1.7"/><polygon points="569.0,425.6 562.5,436.8 549.5,436.8 543.0,425.6 549.5,414.3 562.5,414.3" fill="none" stroke="#4C8C6B" stroke-width="1.7"/></g>
<rect x="700.0" y="150.0" width="172.0" height="182.0" rx="12" ry="12" fill="#DCE7F2" fill-opacity="1.0" stroke="#2A2A2A" stroke-width="2"/>
<text x="786.0" y="174.0" font-family="DejaVu Sans, sans-serif" font-size="14" font-weight="700" fill="#2A2A2A" text-anchor="middle" dominant-baseline="central">hybrid</text>
<g clip-path="url(#clip-bfly)"><polygon points="729.9,194.9 726.1,201.4 718.6,201.4 714.9,194.9 718.6,188.4 726.1,188.4" fill="none" stroke="#4C8C6B" stroke-width="1.1"/><polygon points="729.9,207.9 726.1,214.4 718.6,214.4 714.9,207.9 718.6,201.4 726.1,201.4" fill="none" stroke="#4C8C6B" stroke-width="1.1"/><polygon points="729.9,220.9 726.1,227.4 718.6,227.4 714.9,220.9 718.6,214.4 726.1,214.4" fill="none" stroke="#4C8C6B" stroke-width="1.1"/><polygon points="729.9,233.9 726.1,240.4 718.6,240.4 714.9,233.9 718.6,227.4 726.1,227.4" fill="none" stroke="#4C8C6B" stroke-width="1.1"/><polygon points="729.9,246.9 726.1,253.4 718.6,253.4 714.9,246.9 718.6,240.4 726.1,240.4" fill="none" stroke="#4C8C6B" stroke-width="1.1"/><polygon points="729.9,259.9 726.1,266.4 718.6,266.4 714.9,259.9 718.6,253.4 726.1,253.4" fill="none" stroke="#4C8C6B" stroke-width="1.1"/><polygon points="729.9,272.9 726.1,279.4 718.6,279.4 714.9,272.9 718.6,266.4 726.1,266.4" fill="none" stroke="#4C8C6B" stroke-width="1.1"/><polygon points="729.9,285.9 726.1,292.4 718.6,292.4 714.9,285.9 718.6,279.4 726.1,279.4" fill="none" stroke="#4C8C6B" stroke-width="1.1"/><polygon points="741.1,201.4 737.4,207.9 729.9,207.9 726.1,201.4 729.9,194.9 737.4,194.9" fill="none" stroke="#4C8C6B" stroke-width="1.1"/><polygon points="741.1,214.4 737.4,220.9 729.9,220.9 726.1,214.4 729.9,207.9 737.4,207.9" fill="none" stroke="#4C8C6B" stroke-width="1.1"/><polygon points="741.1,227.4 737.4,233.9 729.9,233.9 726.1,227.4 729.9,220.9 737.4,220.9" fill="none" stroke="#4C8C6B" stroke-width="1.1"/><polygon points="741.1,240.4 737.4,246.9 729.9,246.9 726.1,240.4 729.9,233.9 737.4,233.9" fill="none" stroke="#4C8C6B" stroke-width="1.1"/><polygon points="741.1,253.4 737.4,259.9 729.9,259.9 726.1,253.4 729.9,246.9 737.4,246.9" fill="none" stroke="#4C8C6B" stroke-width="1.1"/><polygon points="741.1,266.4 737.4,272.9 729.9,272.9 726.1,266.4 729.9,259.9 737.4,259.9" fill="none" stroke="#4C8C6B" stroke-width="1.1"/><polygon points="741.1,279.4 737.4,285.9 729.9,285.9 726.1,279.4 729.9,272.9 737.4,272.9" fill="none" stroke="#4C8C6B" stroke-width="1.1"/><polygon points="741.1,292.4 737.4,298.9 729.9,298.9 726.1,292.4 729.9,285.9 737.4,285.9" fill="none" stroke="#4C8C6B" stroke-width="1.1"/><polygon points="752.4,194.9 748.6,201.4 741.1,201.4 737.4,194.9 741.1,188.4 748.6,188.4" fill="none" stroke="#4C8C6B" stroke-width="1.1"/><polygon points="752.4,207.9 748.6,214.4 741.1,214.4 737.4,207.9 741.1,201.4 748.6,201.4" fill="none" stroke="#4C8C6B" stroke-width="1.1"/><polygon points="752.4,220.9 748.6,227.4 741.1,227.4 737.4,220.9 741.1,214.4 748.6,214.4" fill="none" stroke="#4C8C6B" stroke-width="1.1"/><polygon points="752.4,233.9 748.6,240.4 741.1,240.4 737.4,233.9 741.1,227.4 748.6,227.4" fill="none" stroke="#4C8C6B" stroke-width="1.1"/><polygon points="752.4,246.9 748.6,253.4 741.1,253.4 737.4,246.9 741.1,240.4 748.6,240.4" fill="none" stroke="#4C8C6B" stroke-width="1.1"/><polygon points="752.4,259.9 748.6,266.4 741.1,266.4 737.4,259.9 741.1,253.4 748.6,253.4" fill="none" stroke="#4C8C6B" stroke-width="1.1"/><polygon points="752.4,272.9 748.6,279.4 741.1,279.4 737.4,272.9 741.1,266.4 748.6,266.4" fill="none" stroke="#4C8C6B" stroke-width="1.1"/><polygon points="752.4,285.9 748.6,292.4 741.1,292.4 737.4,285.9 741.1,279.4 748.6,279.4" fill="none" stroke="#4C8C6B" stroke-width="1.1"/><polygon points="763.6,201.4 759.9,207.9 752.4,207.9 748.6,201.4 752.4,194.9 759.9,194.9" fill="none" stroke="#4C8C6B" stroke-width="1.1"/><polygon points="763.6,214.4 759.9,220.9 752.4,220.9 748.6,214.4 752.4,207.9 759.9,207.9" fill="none" stroke="#4C8C6B" stroke-width="1.1"/><polygon points="763.6,227.4 759.9,233.9 752.4,233.9 748.6,227.4 752.4,220.9 759.9,220.9" fill="none" stroke="#4C8C6B" stroke-width="1.1"/><polygon points="763.6,240.4 759.9,246.9 752.4,246.9 748.6,240.4 752.4,233.9 759.9,233.9" fill="none" stroke="#4C8C6B" stroke-width="1.1"/><polygon points="763.6,253.4 759.9,259.9 752.4,259.9 748.6,253.4 752.4,246.9 759.9,246.9" fill="none" stroke="#4C8C6B" stroke-width="1.1"/><polygon points="763.6,266.4 759.9,272.9 752.4,272.9 748.6,266.4 752.4,259.9 759.9,259.9" fill="none" stroke="#4C8C6B" stroke-width="1.1"/><polygon points="763.6,279.4 759.9,285.9 752.4,285.9 748.6,279.4 752.4,272.9 759.9,272.9" fill="none" stroke="#4C8C6B" stroke-width="1.1"/><polygon points="763.6,292.4 759.9,298.9 752.4,298.9 748.6,292.4 752.4,285.9 759.9,285.9" fill="none" stroke="#4C8C6B" stroke-width="1.1"/><polygon points="774.9,194.9 771.1,201.4 763.6,201.4 759.9,194.9 763.6,188.4 771.1,188.4" fill="none" stroke="#4C8C6B" stroke-width="1.1"/><polygon points="774.9,207.9 771.1,214.4 763.6,214.4 759.9,207.9 763.6,201.4 771.1,201.4" fill="none" stroke="#4C8C6B" stroke-width="1.1"/><polygon points="774.9,220.9 771.1,227.4 763.6,227.4 759.9,220.9 763.6,214.4 771.1,214.4" fill="none" stroke="#4C8C6B" stroke-width="1.1"/><polygon points="774.9,233.9 771.1,240.4 763.6,240.4 759.9,233.9 763.6,227.4 771.1,227.4" fill="none" stroke="#4C8C6B" stroke-width="1.1"/><polygon points="774.9,246.9 771.1,253.4 763.6,253.4 759.9,246.9 763.6,240.4 771.1,240.4" fill="none" stroke="#4C8C6B" stroke-width="1.1"/><polygon points="774.9,259.9 771.1,266.4 763.6,266.4 759.9,259.9 763.6,253.4 771.1,253.4" fill="none" stroke="#4C8C6B" stroke-width="1.1"/><polygon points="774.9,272.9 771.1,279.4 763.6,279.4 759.9,272.9 763.6,266.4 771.1,266.4" fill="none" stroke="#4C8C6B" stroke-width="1.1"/><polygon points="774.9,285.9 771.1,292.4 763.6,292.4 759.9,285.9 763.6,279.4 771.1,279.4" fill="none" stroke="#4C8C6B" stroke-width="1.1"/><polygon points="786.1,201.4 782.4,207.9 774.9,207.9 771.1,201.4 774.9,194.9 782.4,194.9" fill="none" stroke="#4C8C6B" stroke-width="1.1"/><polygon points="786.1,214.4 782.4,220.9 774.9,220.9 771.1,214.4 774.9,207.9 782.4,207.9" fill="none" stroke="#4C8C6B" stroke-width="1.1"/><polygon points="786.1,227.4 782.4,233.9 774.9,233.9 771.1,227.4 774.9,220.9 782.4,220.9" fill="none" stroke="#4C8C6B" stroke-width="1.1"/><polygon points="786.1,240.4 782.4,246.9 774.9,246.9 771.1,240.4 774.9,233.9 782.4,233.9" fill="none" stroke="#4C8C6B" stroke-width="1.1"/><polygon points="786.1,253.4 782.4,259.9 774.9,259.9 771.1,253.4 774.9,246.9 782.4,246.9" fill="none" stroke="#4C8C6B" stroke-width="1.1"/><polygon points="786.1,266.4 782.4,272.9 774.9,272.9 771.1,266.4 774.9,259.9 782.4,259.9" fill="none" stroke="#4C8C6B" stroke-width="1.1"/><polygon points="786.1,279.4 782.4,285.9 774.9,285.9 771.1,279.4 774.9,272.9 782.4,272.9" fill="none" stroke="#4C8C6B" stroke-width="1.1"/><polygon points="786.1,292.4 782.4,298.9 774.9,298.9 771.1,292.4 774.9,285.9 782.4,285.9" fill="none" stroke="#4C8C6B" stroke-width="1.1"/><polygon points="797.4,194.9 793.6,201.4 786.1,201.4 782.4,194.9 786.1,188.4 793.6,188.4" fill="none" stroke="#4C8C6B" stroke-width="1.1"/><polygon points="797.4,207.9 793.6,214.4 786.1,214.4 782.4,207.9 786.1,201.4 793.6,201.4" fill="none" stroke="#4C8C6B" stroke-width="1.1"/><polygon points="797.4,220.9 793.6,227.4 786.1,227.4 782.4,220.9 786.1,214.4 793.6,214.4" fill="none" stroke="#4C8C6B" stroke-width="1.1"/><polygon points="797.4,233.9 793.6,240.4 786.1,240.4 782.4,233.9 786.1,227.4 793.6,227.4" fill="none" stroke="#4C8C6B" stroke-width="1.1"/><polygon points="797.4,246.9 793.6,253.4 786.1,253.4 782.4,246.9 786.1,240.4 793.6,240.4" fill="none" stroke="#4C8C6B" stroke-width="1.1"/><polygon points="797.4,259.9 793.6,266.4 786.1,266.4 782.4,259.9 786.1,253.4 793.6,253.4" fill="none" stroke="#4C8C6B" stroke-width="1.1"/><polygon points="797.4,272.9 793.6,279.4 786.1,279.4 782.4,272.9 786.1,266.4 793.6,266.4" fill="none" stroke="#4C8C6B" stroke-width="1.1"/><polygon points="797.4,285.9 793.6,292.4 786.1,292.4 782.4,285.9 786.1,279.4 793.6,279.4" fill="none" stroke="#4C8C6B" stroke-width="1.1"/><polygon points="808.6,201.4 804.9,207.9 797.4,207.9 793.6,201.4 797.4,194.9 804.9,194.9" fill="none" stroke="#4C8C6B" stroke-width="1.1"/><polygon points="808.6,214.4 804.9,220.9 797.4,220.9 793.6,214.4 797.4,207.9 804.9,207.9" fill="none" stroke="#4C8C6B" stroke-width="1.1"/><polygon points="808.6,227.4 804.9,233.9 797.4,233.9 793.6,227.4 797.4,220.9 804.9,220.9" fill="none" stroke="#4C8C6B" stroke-width="1.1"/><polygon points="808.6,240.4 804.9,246.9 797.4,246.9 793.6,240.4 797.4,233.9 804.9,233.9" fill="none" stroke="#4C8C6B" stroke-width="1.1"/><polygon points="808.6,253.4 804.9,259.9 797.4,259.9 793.6,253.4 797.4,246.9 804.9,246.9" fill="none" stroke="#4C8C6B" stroke-width="1.1"/><polygon points="808.6,266.4 804.9,272.9 797.4,272.9 793.6,266.4 797.4,259.9 804.9,259.9" fill="none" stroke="#4C8C6B" stroke-width="1.1"/><polygon points="808.6,279.4 804.9,285.9 797.4,285.9 793.6,279.4 797.4,272.9 804.9,272.9" fill="none" stroke="#4C8C6B" stroke-width="1.1"/><polygon points="808.6,292.4 804.9,298.9 797.4,298.9 793.6,292.4 797.4,285.9 804.9,285.9" fill="none" stroke="#4C8C6B" stroke-width="1.1"/><polygon points="819.9,194.9 816.1,201.4 808.6,201.4 804.9,194.9 808.6,188.4 816.1,188.4" fill="none" stroke="#4C8C6B" stroke-width="1.1"/><polygon points="819.9,207.9 816.1,214.4 808.6,214.4 804.9,207.9 808.6,201.4 816.1,201.4" fill="none" stroke="#4C8C6B" stroke-width="1.1"/><polygon points="819.9,220.9 816.1,227.4 808.6,227.4 804.9,220.9 808.6,214.4 816.1,214.4" fill="none" stroke="#4C8C6B" stroke-width="1.1"/><polygon points="819.9,233.9 816.1,240.4 808.6,240.4 804.9,233.9 808.6,227.4 816.1,227.4" fill="none" stroke="#4C8C6B" stroke-width="1.1"/><polygon points="819.9,246.9 816.1,253.4 808.6,253.4 804.9,246.9 808.6,240.4 816.1,240.4" fill="none" stroke="#4C8C6B" stroke-width="1.1"/><polygon points="819.9,259.9 816.1,266.4 808.6,266.4 804.9,259.9 808.6,253.4 816.1,253.4" fill="none" stroke="#4C8C6B" stroke-width="1.1"/><polygon points="819.9,272.9 816.1,279.4 808.6,279.4 804.9,272.9 808.6,266.4 816.1,266.4" fill="none" stroke="#4C8C6B" stroke-width="1.1"/><polygon points="819.9,285.9 816.1,292.4 808.6,292.4 804.9,285.9 808.6,279.4 816.1,279.4" fill="none" stroke="#4C8C6B" stroke-width="1.1"/><polygon points="831.1,201.4 827.4,207.9 819.9,207.9 816.1,201.4 819.9,194.9 827.4,194.9" fill="none" stroke="#4C8C6B" stroke-width="1.1"/><polygon points="831.1,214.4 827.4,220.9 819.9,220.9 816.1,214.4 819.9,207.9 827.4,207.9" fill="none" stroke="#4C8C6B" stroke-width="1.1"/><polygon points="831.1,227.4 827.4,233.9 819.9,233.9 816.1,227.4 819.9,220.9 827.4,220.9" fill="none" stroke="#4C8C6B" stroke-width="1.1"/><polygon points="831.1,240.4 827.4,246.9 819.9,246.9 816.1,240.4 819.9,233.9 827.4,233.9" fill="none" stroke="#4C8C6B" stroke-width="1.1"/><polygon points="831.1,253.4 827.4,259.9 819.9,259.9 816.1,253.4 819.9,246.9 827.4,246.9" fill="none" stroke="#4C8C6B" stroke-width="1.1"/><polygon points="831.1,266.4 827.4,272.9 819.9,272.9 816.1,266.4 819.9,259.9 827.4,259.9" fill="none" stroke="#4C8C6B" stroke-width="1.1"/><polygon points="831.1,279.4 827.4,285.9 819.9,285.9 816.1,279.4 819.9,272.9 827.4,272.9" fill="none" stroke="#4C8C6B" stroke-width="1.1"/><polygon points="831.1,292.4 827.4,298.9 819.9,298.9 816.1,292.4 819.9,285.9 827.4,285.9" fill="none" stroke="#4C8C6B" stroke-width="1.1"/><polygon points="842.4,194.9 838.6,201.4 831.1,201.4 827.4,194.9 831.1,188.4 838.6,188.4" fill="none" stroke="#4C8C6B" stroke-width="1.1"/><polygon points="842.4,207.9 838.6,214.4 831.1,214.4 827.4,207.9 831.1,201.4 838.6,201.4" fill="none" stroke="#4C8C6B" stroke-width="1.1"/><polygon points="842.4,220.9 838.6,227.4 831.1,227.4 827.4,220.9 831.1,214.4 838.6,214.4" fill="none" stroke="#4C8C6B" stroke-width="1.1"/><polygon points="842.4,233.9 838.6,240.4 831.1,240.4 827.4,233.9 831.1,227.4 838.6,227.4" fill="none" stroke="#4C8C6B" stroke-width="1.1"/><polygon points="842.4,246.9 838.6,253.4 831.1,253.4 827.4,246.9 831.1,240.4 838.6,240.4" fill="none" stroke="#4C8C6B" stroke-width="1.1"/><polygon points="842.4,259.9 838.6,266.4 831.1,266.4 827.4,259.9 831.1,253.4 838.6,253.4" fill="none" stroke="#4C8C6B" stroke-width="1.1"/><polygon points="842.4,272.9 838.6,279.4 831.1,279.4 827.4,272.9 831.1,266.4 838.6,266.4" fill="none" stroke="#4C8C6B" stroke-width="1.1"/><polygon points="842.4,285.9 838.6,292.4 831.1,292.4 827.4,285.9 831.1,279.4 838.6,279.4" fill="none" stroke="#4C8C6B" stroke-width="1.1"/><polygon points="853.6,201.4 849.9,207.9 842.4,207.9 838.6,201.4 842.4,194.9 849.9,194.9" fill="none" stroke="#4C8C6B" stroke-width="1.1"/><polygon points="853.6,214.4 849.9,220.9 842.4,220.9 838.6,214.4 842.4,207.9 849.9,207.9" fill="none" stroke="#4C8C6B" stroke-width="1.1"/><polygon points="853.6,227.4 849.9,233.9 842.4,233.9 838.6,227.4 842.4,220.9 849.9,220.9" fill="none" stroke="#4C8C6B" stroke-width="1.1"/><polygon points="853.6,240.4 849.9,246.9 842.4,246.9 838.6,240.4 842.4,233.9 849.9,233.9" fill="none" stroke="#4C8C6B" stroke-width="1.1"/><polygon points="853.6,253.4 849.9,259.9 842.4,259.9 838.6,253.4 842.4,246.9 849.9,246.9" fill="none" stroke="#4C8C6B" stroke-width="1.1"/><polygon points="853.6,266.4 849.9,272.9 842.4,272.9 838.6,266.4 842.4,259.9 849.9,259.9" fill="none" stroke="#4C8C6B" stroke-width="1.1"/><polygon points="853.6,279.4 849.9,285.9 842.4,285.9 838.6,279.4 842.4,272.9 849.9,272.9" fill="none" stroke="#4C8C6B" stroke-width="1.1"/><polygon points="853.6,292.4 849.9,298.9 842.4,298.9 838.6,292.4 842.4,285.9 849.9,285.9" fill="none" stroke="#4C8C6B" stroke-width="1.1"/></g>
<path d="M 788.0 228.8 C 816.36 203.76 840.12 223.56 830.88 242.04 C 825.6 251.28 804.48 248.64 788.0 244.7 Z" fill="none" stroke="#C77B3B" stroke-width="2.2" stroke-opacity="1.0" fill-opacity="1.0" stroke-linejoin="round" stroke-linecap="round"/>
<path d="M 788.0 247.3 C 812.4 249.96 826.92 265.8 817.68 281.64 C 811.08 292.2 795.24 284.28 788.0 264.5 Z" fill="none" stroke="#C77B3B" stroke-width="2.2" stroke-opacity="1.0" fill-opacity="1.0" stroke-linejoin="round" stroke-linecap="round"/>
<path d="M 784.0 228.8 C 755.64 203.76 731.88 223.56 741.12 242.04 C 746.4 251.28 767.52 248.64 784.0 244.7 Z" fill="none" stroke="#C77B3B" stroke-width="2.2" stroke-opacity="1.0" fill-opacity="1.0" stroke-linejoin="round" stroke-linecap="round"/>
<path d="M 784.0 247.3 C 759.6 249.96 745.08 265.8 754.32 281.64 C 760.92 292.2 776.76 284.28 784.0 264.5 Z" fill="none" stroke="#C77B3B" stroke-width="2.2" stroke-opacity="1.0" fill-opacity="1.0" stroke-linejoin="round" stroke-linecap="round"/>
<ellipse cx="786.0" cy="246" rx="2.2" ry="26.4" fill="#2A2A2A"/>
<circle cx="786.0" cy="223.6" r="3.3" fill="#2A2A2A"/>
<path d="M 788.0 220.9 C 790.6 213.0 793.9 209.0 795.9 207.7" fill="none" stroke="#2A2A2A" stroke-width="1.6" stroke-opacity="1.0" fill-opacity="1.0" stroke-linejoin="round" stroke-linecap="round"/>
<circle cx="795.9" cy="207.7" r="2.6" fill="#2A2A2A"/>
<path d="M 784.0 220.9 C 781.4 213.0 778.1 209.0 776.1 207.7" fill="none" stroke="#2A2A2A" stroke-width="1.6" stroke-opacity="1.0" fill-opacity="1.0" stroke-linejoin="round" stroke-linecap="round"/>
<circle cx="776.1" cy="207.7" r="2.6" fill="#2A2A2A"/>
<text x="786.0" y="316.0" font-family="DejaVu Sans, sans-serif" font-size="12" font-weight="400" fill="#8A8A8A" text-anchor="middle" dominant-baseline="central">symmetric + semantic</text>
<line x1="208.0" y1="228.0" x2="349.4" y2="152.2" stroke="#2A2A2A" stroke-width="2.4" stroke-linecap="round"/>
<polygon points="360.0,146.5 352.7,158.3 346.1,146.0" fill="#2A2A2A" stroke="none" stroke-width="1"/>
<line x1="208.0" y1="258.0" x2="349.8" y2="347.1" stroke="#2A2A2A" stroke-width="2.4" stroke-linecap="round"/>
<polygon points="360.0,353.5 346.1,353.0 353.6,341.2" fill="#2A2A2A" stroke="none" stroke-width="1"/>
<line x1="560.0" y1="146.5" x2="689.5" y2="217.1" stroke="#2A2A2A" stroke-width="2.4" stroke-linecap="round"/>
<polygon points="700.0,222.8 686.1,223.2 692.8,210.9" fill="#2A2A2A" stroke="none" stroke-width="1"/>
<line x1="560.0" y1="353.5" x2="689.9" y2="269.4" stroke="#2A2A2A" stroke-width="2.4" stroke-linecap="round"/>
<polygon points="700.0,262.8 693.7,275.2 686.1,263.5" fill="#2A2A2A" stroke="none" stroke-width="1"/>
<line x1="40.0" y1="470.0" x2="862.0" y2="470.0" stroke="#8A8A8A" stroke-width="1.8" stroke-linecap="round"/>
<polygon points="872.0,470.0 862.0,476.0 862.0,464.0" fill="#8A8A8A" stroke="none" stroke-width="1"/>
<text x="60.0" y="456.0" font-family="DejaVu Sans, sans-serif" font-size="12" font-weight="400" fill="#8A8A8A" text-anchor="start" dominant-baseline="central">high energy</text>
<text x="838.0" y="456.0" font-family="DejaVu Sans, sans-serif" font-size="12" font-weight="400" fill="#8A8A8A" text-anchor="end" dominant-baseline="central">low energy</text>
</svg>
